<svg xmlns="http://www.w3.org/2000/svg" xmlns:xlink="http://www.w3.org/1999/xlink" viewBox="-144.3 -481.5 288.5 180.3" width="289" height="180"><defs><clipPath id="glassClip"><path d="M -136.27 -453.44 A 473.48 473.48 0 0 1 136.27 -453.44 L 92.91 -309.17 A 322.83 322.83 0 0 0 -92.91 -309.17 Z"/></clipPath><path id="textArc1" d="M -80.5 -312.6 L -118.0 -458.5" fill="none"/><path id="textArc2" d="M -75.8 -313.8 L -111.1 -460.2" fill="none"/><path id="textArc3" d="M -71.1 -314.9 L -104.2 -461.9" fill="none"/></defs><g clip-path="url(#glassClip)"><g class="layer-vinyl_features"></g><g class="layer-hole_stats"><rect x="-89.3" y="-452.0" width="13.0" height="16.3" rx="1" fill="none" stroke="#ffffff" stroke-width="0.2" opacity="1"/><circle cx="-82.8" cy="-448.5" r="2.5" fill="white" stroke="none" opacity="1"/><text x="-82.8" y="-447.5" text-anchor="middle" fill="#1a1a1a" font-size="2.5" font-weight="700" font-family="'Arial', sans-serif" opacity="1">None</text><text x="-82.8" y="-442.7" text-anchor="middle" fill="white" font-size="1.8" font-family="'Arial', sans-serif" opacity="1">Par 4</text><text x="-82.8" y="-440.1" text-anchor="middle" fill="white" font-size="1.8" font-family="'Arial', sans-serif" opacity="1">350 yd</text><text x="-82.8" y="-437.5" text-anchor="middle" fill="white" font-size="1.8" font-family="'Arial', sans-serif" opacity="1">HCP 7</text><line x1="-91.3" y1="-454.0" x2="-82.8" y2="-452.0" stroke="#ffffff" stroke-dasharray="1.5,1" stroke-width="0.3" opacity="1"/><rect x="-79.6" y="-442.5" width="13.0" height="16.3" rx="1" fill="none" stroke="#ffffff" stroke-width="0.2" opacity="1"/><circle cx="-73.1" cy="-439.0" r="2.5" fill="white" stroke="none" opacity="1"/><text x="-73.1" y="-438.0" text-anchor="middle" fill="#1a1a1a" font-size="2.5" font-weight="700" font-family="'Arial', sans-serif" opacity="1">None</text><text x="-73.1" y="-433.2" text-anchor="middle" fill="white" font-size="1.8" font-family="'Arial', sans-serif" opacity="1">Par 4</text><text x="-73.1" y="-430.6" text-anchor="middle" fill="white" font-size="1.8" font-family="'Arial', sans-serif" opacity="1">350 yd</text><text x="-73.1" y="-428.0" text-anchor="middle" fill="white" font-size="1.8" font-family="'Arial', sans-serif" opacity="1">HCP 11</text><line x1="-64.6" y1="-444.5" x2="-73.1" y2="-442.5" stroke="#ffffff" stroke-dasharray="1.5,1" stroke-width="0.3" opacity="1"/><rect x="-54.1" y="-431.5" width="13.0" height="16.3" rx="1" fill="none" stroke="#ffffff" stroke-width="0.2" opacity="1"/><circle cx="-47.6" cy="-428.0" r="2.5" fill="white" stroke="none" opacity="1"/><text x="-47.6" y="-427.0" text-anchor="middle" fill="#1a1a1a" font-size="2.5" font-weight="700" font-family="'Arial', sans-serif" opacity="1">None</text><text x="-47.6" y="-422.2" text-anchor="middle" fill="white" font-size="1.8" font-family="'Arial', sans-serif" opacity="1">Par 3</text><text x="-47.6" y="-419.6" text-anchor="middle" fill="white" font-size="1.8" font-family="'Arial', sans-serif" opacity="1">350 yd</text><text x="-47.6" y="-417.0" text-anchor="middle" fill="white" font-size="1.8" font-family="'Arial', sans-serif" opacity="1">HCP 13</text><line x1="-39.1" y1="-433.5" x2="-47.6" y2="-431.5" stroke="#ffffff" stroke-dasharray="1.5,1" stroke-width="0.3" opacity="1"/><rect x="-30.1" y="-419.0" width="13.0" height="16.3" rx="1" fill="none" stroke="#ffffff" stroke-width="0.2" opacity="1"/><circle cx="-23.6" cy="-415.5" r="2.5" fill="white" stroke="none" opacity="1"/><text x="-23.6" y="-414.6" text-anchor="middle" fill="#1a1a1a" font-size="2.5" font-weight="700" font-family="'Arial', sans-serif" opacity="1">None</text><text x="-23.6" y="-409.7" text-anchor="middle" fill="white" font-size="1.8" font-family="'Arial', sans-serif" opacity="1">Par 5</text><text x="-23.6" y="-407.1" text-anchor="middle" fill="white" font-size="1.8" font-family="'Arial', sans-serif" opacity="1">350 yd</text><text x="-23.6" y="-404.5" text-anchor="middle" fill="white" font-size="1.8" font-family="'Arial', sans-serif" opacity="1">HCP 3</text><line x1="-15.1" y1="-421.0" x2="-23.6" y2="-419.0" stroke="#ffffff" stroke-dasharray="1.5,1" stroke-width="0.3" opacity="1"/><rect x="-7.5" y="-405.3" width="13.0" height="16.3" rx="1" fill="none" stroke="#ffffff" stroke-width="0.2" opacity="1"/><circle cx="-1.0" cy="-401.8" r="2.5" fill="white" stroke="none" opacity="1"/><text x="-1.0" y="-400.9" text-anchor="middle" fill="#1a1a1a" font-size="2.5" font-weight="700" font-family="'Arial', sans-serif" opacity="1">None</text><text x="-1.0" y="-396.0" text-anchor="middle" fill="white" font-size="1.8" font-family="'Arial', sans-serif" opacity="1">Par 4</text><text x="-1.0" y="-393.4" text-anchor="middle" fill="white" font-size="1.8" font-family="'Arial', sans-serif" opacity="1">350 yd</text><text x="-1.0" y="-390.8" text-anchor="middle" fill="white" font-size="1.8" font-family="'Arial', sans-serif" opacity="1">HCP 1</text><line x1="7.5" y1="-407.3" x2="-1.0" y2="-405.3" stroke="#ffffff" stroke-dasharray="1.5,1" stroke-width="0.3" opacity="1"/><rect x="13.5" y="-390.4" width="13.0" height="16.3" rx="1" fill="none" stroke="#ffffff" stroke-width="0.2" opacity="1"/><circle cx="20.0" cy="-386.9" r="2.5" fill="white" stroke="none" opacity="1"/><text x="20.0" y="-386.0" text-anchor="middle" fill="#1a1a1a" font-size="2.5" font-weight="700" font-family="'Arial', sans-serif" opacity="1">None</text><text x="20.0" y="-381.1" text-anchor="middle" fill="white" font-size="1.8" font-family="'Arial', sans-serif" opacity="1">Par 4</text><text x="20.0" y="-378.5" text-anchor="middle" fill="white" font-size="1.8" font-family="'Arial', sans-serif" opacity="1">350 yd</text><text x="20.0" y="-375.9" text-anchor="middle" fill="white" font-size="1.8" font-family="'Arial', sans-serif" opacity="1">HCP 5</text><line x1="28.5" y1="-392.4" x2="20.0" y2="-390.4" stroke="#ffffff" stroke-dasharray="1.5,1" stroke-width="0.3" opacity="1"/><rect x="33.0" y="-374.5" width="13.0" height="16.3" rx="1" fill="none" stroke="#ffffff" stroke-width="0.2" opacity="1"/><circle cx="39.5" cy="-371.0" r="2.5" fill="white" stroke="none" opacity="1"/><text x="39.5" y="-370.0" text-anchor="middle" fill="#1a1a1a" font-size="2.5" font-weight="700" font-family="'Arial', sans-serif" opacity="1">None</text><text x="39.5" y="-365.2" text-anchor="middle" fill="white" font-size="1.8" font-family="'Arial', sans-serif" opacity="1">Par 4</text><text x="39.5" y="-362.6" text-anchor="middle" fill="white" font-size="1.8" font-family="'Arial', sans-serif" opacity="1">350 yd</text><text x="39.5" y="-360.0" text-anchor="middle" fill="white" font-size="1.8" font-family="'Arial', sans-serif" opacity="1">HCP 15</text><line x1="48.0" y1="-376.5" x2="39.5" y2="-374.5" stroke="#ffffff" stroke-dasharray="1.5,1" stroke-width="0.3" opacity="1"/><rect x="50.8" y="-357.6" width="13.0" height="16.3" rx="1" fill="none" stroke="#ffffff" stroke-width="0.2" opacity="1"/><circle cx="57.3" cy="-354.1" r="2.5" fill="white" stroke="none" opacity="1"/><text x="57.3" y="-353.2" text-anchor="middle" fill="#1a1a1a" font-size="2.5" font-weight="700" font-family="'Arial', sans-serif" opacity="1">None</text><text x="57.3" y="-348.3" text-anchor="middle" fill="white" font-size="1.8" font-family="'Arial', sans-serif" opacity="1">Par 3</text><text x="57.3" y="-345.7" text-anchor="middle" fill="white" font-size="1.8" font-family="'Arial', sans-serif" opacity="1">350 yd</text><text x="57.3" y="-343.1" text-anchor="middle" fill="white" font-size="1.8" font-family="'Arial', sans-serif" opacity="1">HCP 17</text><line x1="65.8" y1="-359.6" x2="57.3" y2="-357.6" stroke="#ffffff" stroke-dasharray="1.5,1" stroke-width="0.3" opacity="1"/><rect x="29.5" y="-346.9" width="13.0" height="16.3" rx="1" fill="none" stroke="#ffffff" stroke-width="0.2" opacity="1"/><circle cx="36.0" cy="-343.4" r="2.5" fill="white" stroke="none" opacity="1"/><text x="36.0" y="-342.4" text-anchor="middle" fill="#1a1a1a" font-size="2.5" font-weight="700" font-family="'Arial', sans-serif" opacity="1">None</text><text x="36.0" y="-337.5" text-anchor="middle" fill="white" font-size="1.8" font-family="'Arial', sans-serif" opacity="1">Par 4</text><text x="36.0" y="-334.9" text-anchor="middle" fill="white" font-size="1.8" font-family="'Arial', sans-serif" opacity="1">350 yd</text><text x="36.0" y="-332.3" text-anchor="middle" fill="white" font-size="1.8" font-family="'Arial', sans-serif" opacity="1">HCP 9</text><line x1="44.5" y1="-348.9" x2="36.0" y2="-346.9" stroke="#ffffff" stroke-dasharray="1.5,1" stroke-width="0.3" opacity="1"/></g><g class="layer-ruler"><g transform="rotate(16.7, 0, 0)"><rect x="-18.0" y="-464.4" width="8.0" height="54.6" rx="1.5" fill="white" stroke="none" opacity="1"/><text x="-14.0" y="-437.1" text-anchor="middle" fill="#1a1a1a" font-size="5.0" font-weight="700" font-family="'Arial', sans-serif" opacity="1" transform="rotate(-90, -14.0, -437.1)">None</text></g><g transform="rotate(16.7, 0, 0)"><rect x="-8.0" y="-464.4" width="7.0" height="54.6" fill="white" stroke="none"/><rect x="-8.0" y="-464.4" width="7.0" height="14.4" fill="#1a1a1a" stroke="none"/><rect x="-8.0" y="-437.8" width="7.0" height="10.3" fill="#1a1a1a" stroke="none"/><rect x="-8.0" y="-418.5" width="7.0" height="6.9" fill="#1a1a1a" stroke="none"/><rect x="-8.0" y="-411.6" width="7.0" height="1.8" fill="#4ade80" stroke="none"/><rect x="-8.0" y="-464.4" width="7.0" height="54.6" fill="none" stroke="white" stroke-width="0.3"/><line x1="-8.0" y1="-450.0" x2="-1.0" y2="-450.0" stroke="white" stroke-width="0.2"/><line x1="-8.0" y1="-437.8" x2="-1.0" y2="-437.8" stroke="white" stroke-width="0.2"/><line x1="-8.0" y1="-427.5" x2="-1.0" y2="-427.5" stroke="white" stroke-width="0.2"/><line x1="-8.0" y1="-418.5" x2="-1.0" y2="-418.5" stroke="white" stroke-width="0.2"/><line x1="-8.0" y1="-411.6" x2="-1.0" y2="-411.6" stroke="white" stroke-width="0.2"/><rect x="-8.0" y="-418.5" width="7.0" height="6.9" fill="none" stroke="#4ade80" stroke-width="0.4"/><text x="-4.5" y="-456.0" text-anchor="middle" fill="white" font-size="3.5" font-weight="700" font-family="'Arial', sans-serif" opacity="1">+4</text><text x="-4.5" y="-442.7" text-anchor="middle" fill="#1a1a1a" font-size="3.5" font-weight="700" font-family="'Arial', sans-serif" opacity="1">+3</text><text x="-4.5" y="-431.4" text-anchor="middle" fill="white" font-size="3.5" font-weight="700" font-family="'Arial', sans-serif" opacity="1">+2</text><text x="-4.5" y="-421.8" text-anchor="middle" fill="#1a1a1a" font-size="3.5" font-weight="700" font-family="'Arial', sans-serif" opacity="1">+1</text><text x="-4.5" y="-413.9" text-anchor="middle" fill="#4ade80" font-size="3.5" font-weight="700" font-family="'Arial', sans-serif" opacity="1">0</text><text x="-4.5" y="-410.3" text-anchor="middle" fill="#1a1a1a" font-size="1.2" font-weight="700" font-family="'Arial', sans-serif" opacity="1">-1</text></g><g transform="rotate(16.7, 0, 0)"><rect x="-18.0" y="-448.3" width="8.0" height="52.3" rx="1.5" fill="white" stroke="none" opacity="1"/><text x="-14.0" y="-422.1" text-anchor="middle" fill="#1a1a1a" font-size="5.0" font-weight="700" font-family="'Arial', sans-serif" opacity="1" transform="rotate(-90, -14.0, -422.1)">None</text></g><g transform="rotate(16.7, 0, 0)"><rect x="-8.0" y="-448.3" width="7.0" height="52.3" fill="white" stroke="none"/><rect x="-8.0" y="-448.3" width="7.0" height="13.3" fill="#1a1a1a" stroke="none"/><rect x="-8.0" y="-423.7" width="7.0" height="10.2" fill="#1a1a1a" stroke="none"/><rect x="-8.0" y="-404.5" width="7.0" height="6.8" fill="#1a1a1a" stroke="none"/><rect x="-8.0" y="-397.7" width="7.0" height="1.8" fill="#4ade80" stroke="none"/><rect x="-8.0" y="-448.3" width="7.0" height="52.3" fill="none" stroke="white" stroke-width="0.3"/><line x1="-8.0" y1="-435.0" x2="-1.0" y2="-435.0" stroke="white" stroke-width="0.2"/><line x1="-8.0" y1="-423.7" x2="-1.0" y2="-423.7" stroke="white" stroke-width="0.2"/><line x1="-8.0" y1="-413.4" x2="-1.0" y2="-413.4" stroke="white" stroke-width="0.2"/><line x1="-8.0" y1="-404.5" x2="-1.0" y2="-404.5" stroke="white" stroke-width="0.2"/><line x1="-8.0" y1="-397.7" x2="-1.0" y2="-397.7" stroke="white" stroke-width="0.2"/><rect x="-8.0" y="-404.5" width="7.0" height="6.8" fill="none" stroke="#4ade80" stroke-width="0.4"/><text x="-4.5" y="-440.4" text-anchor="middle" fill="white" font-size="3.5" font-weight="700" font-family="'Arial', sans-serif" opacity="1">+4</text><text x="-4.5" y="-428.1" text-anchor="middle" fill="#1a1a1a" font-size="3.5" font-weight="700" font-family="'Arial', sans-serif" opacity="1">+3</text><text x="-4.5" y="-417.3" text-anchor="middle" fill="white" font-size="3.5" font-weight="700" font-family="'Arial', sans-serif" opacity="1">+2</text><text x="-4.5" y="-407.8" text-anchor="middle" fill="#1a1a1a" font-size="3.5" font-weight="700" font-family="'Arial', sans-serif" opacity="1">+1</text><text x="-4.5" y="-399.9" text-anchor="middle" fill="#4ade80" font-size="3.5" font-weight="700" font-family="'Arial', sans-serif" opacity="1">0</text><text x="-4.5" y="-396.4" text-anchor="middle" fill="#1a1a1a" font-size="1.2" font-weight="700" font-family="'Arial', sans-serif" opacity="1">-1</text></g><g transform="rotate(16.7, 0, 0)"><rect x="-18.0" y="-434.3" width="8.0" height="52.3" rx="1.5" fill="white" stroke="none" opacity="1"/><text x="-14.0" y="-408.2" text-anchor="middle" fill="#1a1a1a" font-size="5.0" font-weight="700" font-family="'Arial', sans-serif" opacity="1" transform="rotate(-90, -14.0, -408.2)">None</text></g><g transform="rotate(16.7, 0, 0)"><rect x="-8.0" y="-434.3" width="7.0" height="52.3" fill="white" stroke="none"/><rect x="-8.0" y="-420.5" width="7.0" height="14.5" fill="#1a1a1a" stroke="none"/><rect x="-8.0" y="-393.5" width="7.0" height="9.7" fill="#1a1a1a" stroke="none"/><rect x="-8.0" y="-383.8" width="7.0" height="1.8" fill="#4ade80" stroke="none"/><rect x="-8.0" y="-434.3" width="7.0" height="52.3" fill="none" stroke="white" stroke-width="0.3"/><line x1="-8.0" y1="-420.5" x2="-1.0" y2="-420.5" stroke="white" stroke-width="0.2"/><line x1="-8.0" y1="-406.0" x2="-1.0" y2="-406.0" stroke="white" stroke-width="0.2"/><line x1="-8.0" y1="-393.5" x2="-1.0" y2="-393.5" stroke="white" stroke-width="0.2"/><line x1="-8.0" y1="-383.8" x2="-1.0" y2="-383.8" stroke="white" stroke-width="0.2"/><rect x="-8.0" y="-393.5" width="7.0" height="9.7" fill="none" stroke="#4ade80" stroke-width="0.4"/><text x="-4.5" y="-426.2" text-anchor="middle" fill="#1a1a1a" font-size="3.5" font-weight="700" font-family="'Arial', sans-serif" opacity="1">+3</text><text x="-4.5" y="-412.0" text-anchor="middle" fill="white" font-size="3.5" font-weight="700" font-family="'Arial', sans-serif" opacity="1">+2</text><text x="-4.5" y="-398.5" text-anchor="middle" fill="#1a1a1a" font-size="3.5" font-weight="700" font-family="'Arial', sans-serif" opacity="1">+1</text><text x="-4.5" y="-387.4" text-anchor="middle" fill="#4ade80" font-size="3.5" font-weight="700" font-family="'Arial', sans-serif" opacity="1">0</text><text x="-4.5" y="-382.5" text-anchor="middle" fill="#1a1a1a" font-size="1.2" font-weight="700" font-family="'Arial', sans-serif" opacity="1">-1</text></g><g transform="rotate(16.7, 0, 0)"><rect x="-18.0" y="-420.4" width="8.0" height="52.3" rx="1.5" fill="white" stroke="none" opacity="1"/><text x="-14.0" y="-394.3" text-anchor="middle" fill="#1a1a1a" font-size="5.0" font-weight="700" font-family="'Arial', sans-serif" opacity="1" transform="rotate(-90, -14.0, -394.3)">None</text></g><g transform="rotate(16.7, 0, 0)"><rect x="-8.0" y="-420.4" width="7.0" height="52.3" fill="white" stroke="none"/><rect x="-8.0" y="-406.8" width="7.0" height="10.9" fill="#1a1a1a" stroke="none"/><rect x="-8.0" y="-386.7" width="7.0" height="6.6" fill="#1a1a1a" stroke="none"/><rect x="-8.0" y="-374.3" width="7.0" height="4.4" fill="#1a1a1a" stroke="none"/><rect x="-8.0" y="-369.9" width="7.0" height="1.8" fill="#4ade80" stroke="none"/><rect x="-8.0" y="-420.4" width="7.0" height="52.3" fill="none" stroke="white" stroke-width="0.3"/><line x1="-8.0" y1="-406.8" x2="-1.0" y2="-406.8" stroke="white" stroke-width="0.2"/><line x1="-8.0" y1="-396.0" x2="-1.0" y2="-396.0" stroke="white" stroke-width="0.2"/><line x1="-8.0" y1="-386.7" x2="-1.0" y2="-386.7" stroke="white" stroke-width="0.2"/><line x1="-8.0" y1="-380.1" x2="-1.0" y2="-380.1" stroke="white" stroke-width="0.2"/><line x1="-8.0" y1="-374.3" x2="-1.0" y2="-374.3" stroke="white" stroke-width="0.2"/><line x1="-8.0" y1="-369.9" x2="-1.0" y2="-369.9" stroke="white" stroke-width="0.2"/><rect x="-8.0" y="-374.3" width="7.0" height="4.4" fill="none" stroke="#4ade80" stroke-width="0.4"/><text x="-4.5" y="-412.4" text-anchor="middle" fill="#1a1a1a" font-size="3.5" font-weight="700" font-family="'Arial', sans-serif" opacity="1">+5</text><text x="-4.5" y="-400.2" text-anchor="middle" fill="white" font-size="3.5" font-weight="700" font-family="'Arial', sans-serif" opacity="1">+4</text><text x="-4.5" y="-390.1" text-anchor="middle" fill="#1a1a1a" font-size="3.5" font-weight="700" font-family="'Arial', sans-serif" opacity="1">+3</text><text x="-4.5" y="-382.2" text-anchor="middle" fill="white" font-size="3.5" font-weight="700" font-family="'Arial', sans-serif" opacity="1">+2</text><text x="-4.5" y="-376.0" text-anchor="middle" fill="#1a1a1a" font-size="3.5" font-weight="700" font-family="'Arial', sans-serif" opacity="1">+1</text><text x="-4.5" y="-371.2" text-anchor="middle" fill="#4ade80" font-size="2.7" font-weight="700" font-family="'Arial', sans-serif" opacity="1">0</text><text x="-4.5" y="-368.6" text-anchor="middle" fill="#1a1a1a" font-size="1.2" font-weight="700" font-family="'Arial', sans-serif" opacity="1">-1</text></g><g transform="rotate(16.7, 0, 0)"><rect x="-18.0" y="-406.5" width="8.0" height="52.3" rx="1.5" fill="white" stroke="none" opacity="1"/><text x="-14.0" y="-380.3" text-anchor="middle" fill="#1a1a1a" font-size="5.0" font-weight="700" font-family="'Arial', sans-serif" opacity="1" transform="rotate(-90, -14.0, -380.3)">None</text></g><g transform="rotate(16.7, 0, 0)"><rect x="-8.0" y="-406.5" width="7.0" height="52.3" fill="white" stroke="none"/><rect x="-8.0" y="-406.5" width="7.0" height="14.4" fill="#1a1a1a" stroke="none"/><rect x="-8.0" y="-379.8" width="7.0" height="9.4" fill="#1a1a1a" stroke="none"/><rect x="-8.0" y="-362.2" width="7.0" height="6.3" fill="#1a1a1a" stroke="none"/><rect x="-8.0" y="-355.9" width="7.0" height="1.8" fill="#4ade80" stroke="none"/><rect x="-8.0" y="-406.5" width="7.0" height="52.3" fill="none" stroke="white" stroke-width="0.3"/><line x1="-8.0" y1="-392.1" x2="-1.0" y2="-392.1" stroke="white" stroke-width="0.2"/><line x1="-8.0" y1="-379.8" x2="-1.0" y2="-379.8" stroke="white" stroke-width="0.2"/><line x1="-8.0" y1="-370.4" x2="-1.0" y2="-370.4" stroke="white" stroke-width="0.2"/><line x1="-8.0" y1="-362.2" x2="-1.0" y2="-362.2" stroke="white" stroke-width="0.2"/><line x1="-8.0" y1="-355.9" x2="-1.0" y2="-355.9" stroke="white" stroke-width="0.2"/><rect x="-8.0" y="-362.2" width="7.0" height="6.3" fill="none" stroke="#4ade80" stroke-width="0.4"/><text x="-4.5" y="-398.1" text-anchor="middle" fill="white" font-size="3.5" font-weight="700" font-family="'Arial', sans-serif" opacity="1">+4</text><text x="-4.5" y="-384.7" text-anchor="middle" fill="#1a1a1a" font-size="3.5" font-weight="700" font-family="'Arial', sans-serif" opacity="1">+3</text><text x="-4.5" y="-373.9" text-anchor="middle" fill="white" font-size="3.5" font-weight="700" font-family="'Arial', sans-serif" opacity="1">+2</text><text x="-4.5" y="-365.1" text-anchor="middle" fill="#1a1a1a" font-size="3.5" font-weight="700" font-family="'Arial', sans-serif" opacity="1">+1</text><text x="-4.5" y="-357.9" text-anchor="middle" fill="#4ade80" font-size="3.5" font-weight="700" font-family="'Arial', sans-serif" opacity="1">0</text><text x="-4.5" y="-354.6" text-anchor="middle" fill="#1a1a1a" font-size="1.2" font-weight="700" font-family="'Arial', sans-serif" opacity="1">-1</text></g><g transform="rotate(16.7, 0, 0)"><rect x="-18.0" y="-392.6" width="8.0" height="52.3" rx="1.5" fill="white" stroke="none" opacity="1"/><text x="-14.0" y="-366.4" text-anchor="middle" fill="#1a1a1a" font-size="5.0" font-weight="700" font-family="'Arial', sans-serif" opacity="1" transform="rotate(-90, -14.0, -366.4)">None</text></g><g transform="rotate(16.7, 0, 0)"><rect x="-8.0" y="-392.6" width="7.0" height="52.3" fill="white" stroke="none"/><rect x="-8.0" y="-392.6" width="7.0" height="14.0" fill="#1a1a1a" stroke="none"/><rect x="-8.0" y="-366.7" width="7.0" height="9.7" fill="#1a1a1a" stroke="none"/><rect x="-8.0" y="-348.5" width="7.0" height="6.5" fill="#1a1a1a" stroke="none"/><rect x="-8.0" y="-342.0" width="7.0" height="1.8" fill="#4ade80" stroke="none"/><rect x="-8.0" y="-392.6" width="7.0" height="52.3" fill="none" stroke="white" stroke-width="0.3"/><line x1="-8.0" y1="-378.6" x2="-1.0" y2="-378.6" stroke="white" stroke-width="0.2"/><line x1="-8.0" y1="-366.7" x2="-1.0" y2="-366.7" stroke="white" stroke-width="0.2"/><line x1="-8.0" y1="-356.9" x2="-1.0" y2="-356.9" stroke="white" stroke-width="0.2"/><line x1="-8.0" y1="-348.5" x2="-1.0" y2="-348.5" stroke="white" stroke-width="0.2"/><line x1="-8.0" y1="-342.0" x2="-1.0" y2="-342.0" stroke="white" stroke-width="0.2"/><rect x="-8.0" y="-348.5" width="7.0" height="6.5" fill="none" stroke="#4ade80" stroke-width="0.4"/><text x="-4.5" y="-384.3" text-anchor="middle" fill="white" font-size="3.5" font-weight="700" font-family="'Arial', sans-serif" opacity="1">+4</text><text x="-4.5" y="-371.4" text-anchor="middle" fill="#1a1a1a" font-size="3.5" font-weight="700" font-family="'Arial', sans-serif" opacity="1">+3</text><text x="-4.5" y="-360.6" text-anchor="middle" fill="white" font-size="3.5" font-weight="700" font-family="'Arial', sans-serif" opacity="1">+2</text><text x="-4.5" y="-351.5" text-anchor="middle" fill="#1a1a1a" font-size="3.5" font-weight="700" font-family="'Arial', sans-serif" opacity="1">+1</text><text x="-4.5" y="-344.0" text-anchor="middle" fill="#4ade80" font-size="3.5" font-weight="700" font-family="'Arial', sans-serif" opacity="1">0</text><text x="-4.5" y="-340.7" text-anchor="middle" fill="#1a1a1a" font-size="1.2" font-weight="700" font-family="'Arial', sans-serif" opacity="1">-1</text></g><g transform="rotate(16.7, 0, 0)"><rect x="-18.0" y="-378.6" width="8.0" height="52.3" rx="1.5" fill="white" stroke="none" opacity="1"/><text x="-14.0" y="-352.5" text-anchor="middle" fill="#1a1a1a" font-size="5.0" font-weight="700" font-family="'Arial', sans-serif" opacity="1" transform="rotate(-90, -14.0, -352.5)">None</text></g><g transform="rotate(16.7, 0, 0)"><rect x="-8.0" y="-378.6" width="7.0" height="52.3" fill="white" stroke="none"/><rect x="-8.0" y="-378.6" width="7.0" height="12.8" fill="#1a1a1a" stroke="none"/><rect x="-8.0" y="-355.0" width="7.0" height="10.6" fill="#1a1a1a" stroke="none"/><rect x="-8.0" y="-335.2" width="7.0" height="7.1" fill="#1a1a1a" stroke="none"/><rect x="-8.0" y="-328.1" width="7.0" height="1.8" fill="#4ade80" stroke="none"/><rect x="-8.0" y="-378.6" width="7.0" height="52.3" fill="none" stroke="white" stroke-width="0.3"/><line x1="-8.0" y1="-365.9" x2="-1.0" y2="-365.9" stroke="white" stroke-width="0.2"/><line x1="-8.0" y1="-355.0" x2="-1.0" y2="-355.0" stroke="white" stroke-width="0.2"/><line x1="-8.0" y1="-344.4" x2="-1.0" y2="-344.4" stroke="white" stroke-width="0.2"/><line x1="-8.0" y1="-335.2" x2="-1.0" y2="-335.2" stroke="white" stroke-width="0.2"/><line x1="-8.0" y1="-328.1" x2="-1.0" y2="-328.1" stroke="white" stroke-width="0.2"/><rect x="-8.0" y="-335.2" width="7.0" height="7.1" fill="none" stroke="#4ade80" stroke-width="0.4"/><text x="-4.5" y="-371.0" text-anchor="middle" fill="white" font-size="3.5" font-weight="700" font-family="'Arial', sans-serif" opacity="1">+4</text><text x="-4.5" y="-359.2" text-anchor="middle" fill="#1a1a1a" font-size="3.5" font-weight="700" font-family="'Arial', sans-serif" opacity="1">+3</text><text x="-4.5" y="-348.5" text-anchor="middle" fill="white" font-size="3.5" font-weight="700" font-family="'Arial', sans-serif" opacity="1">+2</text><text x="-4.5" y="-338.6" text-anchor="middle" fill="#1a1a1a" font-size="3.5" font-weight="700" font-family="'Arial', sans-serif" opacity="1">+1</text><text x="-4.5" y="-330.4" text-anchor="middle" fill="#4ade80" font-size="3.5" font-weight="700" font-family="'Arial', sans-serif" opacity="1">0</text><text x="-4.5" y="-326.8" text-anchor="middle" fill="#1a1a1a" font-size="1.2" font-weight="700" font-family="'Arial', sans-serif" opacity="1">-1</text></g><g transform="rotate(16.7, 0, 0)"><rect x="-18.0" y="-364.7" width="8.0" height="52.3" rx="1.5" fill="white" stroke="none" opacity="1"/><text x="-14.0" y="-338.6" text-anchor="middle" fill="#1a1a1a" font-size="5.0" font-weight="700" font-family="'Arial', sans-serif" opacity="1" transform="rotate(-90, -14.0, -338.6)">None</text></g><g transform="rotate(16.7, 0, 0)"><rect x="-8.0" y="-364.7" width="7.0" height="52.3" fill="white" stroke="none"/><rect x="-8.0" y="-351.6" width="7.0" height="14.8" fill="#1a1a1a" stroke="none"/><rect x="-8.0" y="-324.0" width="7.0" height="9.9" fill="#1a1a1a" stroke="none"/><rect x="-8.0" y="-314.2" width="7.0" height="1.8" fill="#4ade80" stroke="none"/><rect x="-8.0" y="-364.7" width="7.0" height="52.3" fill="none" stroke="white" stroke-width="0.3"/><line x1="-8.0" y1="-351.6" x2="-1.0" y2="-351.6" stroke="white" stroke-width="0.2"/><line x1="-8.0" y1="-336.8" x2="-1.0" y2="-336.8" stroke="white" stroke-width="0.2"/><line x1="-8.0" y1="-324.0" x2="-1.0" y2="-324.0" stroke="white" stroke-width="0.2"/><line x1="-8.0" y1="-314.2" x2="-1.0" y2="-314.2" stroke="white" stroke-width="0.2"/><rect x="-8.0" y="-324.0" width="7.0" height="9.9" fill="none" stroke="#4ade80" stroke-width="0.4"/><text x="-4.5" y="-357.0" text-anchor="middle" fill="#1a1a1a" font-size="3.5" font-weight="700" font-family="'Arial', sans-serif" opacity="1">+3</text><text x="-4.5" y="-343.0" text-anchor="middle" fill="white" font-size="3.5" font-weight="700" font-family="'Arial', sans-serif" opacity="1">+2</text><text x="-4.5" y="-329.2" text-anchor="middle" fill="#1a1a1a" font-size="3.5" font-weight="700" font-family="'Arial', sans-serif" opacity="1">+1</text><text x="-4.5" y="-317.9" text-anchor="middle" fill="#4ade80" font-size="3.5" font-weight="700" font-family="'Arial', sans-serif" opacity="1">0</text><text x="-4.5" y="-312.9" text-anchor="middle" fill="#1a1a1a" font-size="1.2" font-weight="700" font-family="'Arial', sans-serif" opacity="1">-1</text></g><g transform="rotate(16.7, 0, 0)"><rect x="-18.0" y="-350.8" width="8.0" height="52.3" rx="1.5" fill="white" stroke="none" opacity="1"/><text x="-14.0" y="-324.6" text-anchor="middle" fill="#1a1a1a" font-size="5.0" font-weight="700" font-family="'Arial', sans-serif" opacity="1" transform="rotate(-90, -14.0, -324.6)">None</text></g><g transform="rotate(16.7, 0, 0)"><rect x="-8.0" y="-350.8" width="7.0" height="52.3" fill="white" stroke="none"/><rect x="-8.0" y="-350.8" width="7.0" height="13.5" fill="#1a1a1a" stroke="none"/><rect x="-8.0" y="-325.7" width="7.0" height="10.1" fill="#1a1a1a" stroke="none"/><rect x="-8.0" y="-307.0" width="7.0" height="6.7" fill="#1a1a1a" stroke="none"/><rect x="-8.0" y="-300.3" width="7.0" height="1.8" fill="#4ade80" stroke="none"/><rect x="-8.0" y="-350.8" width="7.0" height="52.3" fill="none" stroke="white" stroke-width="0.3"/><line x1="-8.0" y1="-337.3" x2="-1.0" y2="-337.3" stroke="white" stroke-width="0.2"/><line x1="-8.0" y1="-325.7" x2="-1.0" y2="-325.7" stroke="white" stroke-width="0.2"/><line x1="-8.0" y1="-315.7" x2="-1.0" y2="-315.7" stroke="white" stroke-width="0.2"/><line x1="-8.0" y1="-307.0" x2="-1.0" y2="-307.0" stroke="white" stroke-width="0.2"/><line x1="-8.0" y1="-300.3" x2="-1.0" y2="-300.3" stroke="white" stroke-width="0.2"/><rect x="-8.0" y="-307.0" width="7.0" height="6.7" fill="none" stroke="#4ade80" stroke-width="0.4"/><text x="-4.5" y="-342.8" text-anchor="middle" fill="white" font-size="3.5" font-weight="700" font-family="'Arial', sans-serif" opacity="1">+4</text><text x="-4.5" y="-330.3" text-anchor="middle" fill="#1a1a1a" font-size="3.5" font-weight="700" font-family="'Arial', sans-serif" opacity="1">+3</text><text x="-4.5" y="-319.5" text-anchor="middle" fill="white" font-size="3.5" font-weight="700" font-family="'Arial', sans-serif" opacity="1">+2</text><text x="-4.5" y="-310.1" text-anchor="middle" fill="#1a1a1a" font-size="3.5" font-weight="700" font-family="'Arial', sans-serif" opacity="1">+1</text><text x="-4.5" y="-302.4" text-anchor="middle" fill="#4ade80" font-size="3.5" font-weight="700" font-family="'Arial', sans-serif" opacity="1">0</text><text x="-4.5" y="-298.9" text-anchor="middle" fill="#1a1a1a" font-size="1.2" font-weight="700" font-family="'Arial', sans-serif" opacity="1">-1</text></g></g></g><path d="M -136.27 -453.44 A 473.48 473.48 0 0 1 136.27 -453.44 L 92.91 -309.17 A 322.83 322.83 0 0 0 -92.91 -309.17 Z" fill="none" stroke="#ffffff" stroke-width="0.3" opacity="1"/><text fill="white" font-size="7" font-weight="700" font-family="'Arial', sans-serif" opacity="1" text-anchor="middle"><textPath href="#textArc1" startOffset="50%">Bethpage Black</textPath></text><g class="layer-ruler"><g transform="rotate(16.7, 0, 0)"><rect x="-8.0" y="-418.5" width="7.0" height="6.9" fill="none" stroke="#4ade80" stroke-width="0.4"/><rect x="-8.0" y="-411.6" width="7.0" height="1.8" fill="#4ade80" stroke="none"/><text x="-4.5" y="-413.9" text-anchor="middle" fill="#4ade80" font-size="3.5" font-weight="700" font-family="'Arial', sans-serif" opacity="1">0</text><text x="-4.5" y="-410.3" text-anchor="middle" fill="#1a1a1a" font-size="1.2" font-weight="700" font-family="'Arial', sans-serif" opacity="1">-1</text></g><g transform="rotate(16.7, 0, 0)"><rect x="-8.0" y="-404.5" width="7.0" height="6.8" fill="none" stroke="#4ade80" stroke-width="0.4"/><rect x="-8.0" y="-397.7" width="7.0" height="1.8" fill="#4ade80" stroke="none"/><text x="-4.5" y="-399.9" text-anchor="middle" fill="#4ade80" font-size="3.5" font-weight="700" font-family="'Arial', sans-serif" opacity="1">0</text><text x="-4.5" y="-396.4" text-anchor="middle" fill="#1a1a1a" font-size="1.2" font-weight="700" font-family="'Arial', sans-serif" opacity="1">-1</text></g><g transform="rotate(16.7, 0, 0)"><rect x="-8.0" y="-393.5" width="7.0" height="9.7" fill="none" stroke="#4ade80" stroke-width="0.4"/><rect x="-8.0" y="-383.8" width="7.0" height="1.8" fill="#4ade80" stroke="none"/><text x="-4.5" y="-387.4" text-anchor="middle" fill="#4ade80" font-size="3.5" font-weight="700" font-family="'Arial', sans-serif" opacity="1">0</text><text x="-4.5" y="-382.5" text-anchor="middle" fill="#1a1a1a" font-size="1.2" font-weight="700" font-family="'Arial', sans-serif" opacity="1">-1</text></g><g transform="rotate(16.7, 0, 0)"><rect x="-8.0" y="-374.3" width="7.0" height="4.4" fill="none" stroke="#4ade80" stroke-width="0.4"/><rect x="-8.0" y="-369.9" width="7.0" height="1.8" fill="#4ade80" stroke="none"/><text x="-4.5" y="-371.2" text-anchor="middle" fill="#4ade80" font-size="2.7" font-weight="700" font-family="'Arial', sans-serif" opacity="1">0</text><text x="-4.5" y="-368.6" text-anchor="middle" fill="#1a1a1a" font-size="1.2" font-weight="700" font-family="'Arial', sans-serif" opacity="1">-1</text></g><g transform="rotate(16.7, 0, 0)"><rect x="-8.0" y="-362.2" width="7.0" height="6.3" fill="none" stroke="#4ade80" stroke-width="0.4"/><rect x="-8.0" y="-355.9" width="7.0" height="1.8" fill="#4ade80" stroke="none"/><text x="-4.5" y="-357.9" text-anchor="middle" fill="#4ade80" font-size="3.5" font-weight="700" font-family="'Arial', sans-serif" opacity="1">0</text><text x="-4.5" y="-354.6" text-anchor="middle" fill="#1a1a1a" font-size="1.2" font-weight="700" font-family="'Arial', sans-serif" opacity="1">-1</text></g><g transform="rotate(16.7, 0, 0)"><rect x="-8.0" y="-348.5" width="7.0" height="6.5" fill="none" stroke="#4ade80" stroke-width="0.4"/><rect x="-8.0" y="-342.0" width="7.0" height="1.8" fill="#4ade80" stroke="none"/><text x="-4.5" y="-344.0" text-anchor="middle" fill="#4ade80" font-size="3.5" font-weight="700" font-family="'Arial', sans-serif" opacity="1">0</text><text x="-4.5" y="-340.7" text-anchor="middle" fill="#1a1a1a" font-size="1.2" font-weight="700" font-family="'Arial', sans-serif" opacity="1">-1</text></g><g transform="rotate(16.7, 0, 0)"><rect x="-8.0" y="-335.2" width="7.0" height="7.1" fill="none" stroke="#4ade80" stroke-width="0.4"/><rect x="-8.0" y="-328.1" width="7.0" height="1.8" fill="#4ade80" stroke="none"/><text x="-4.5" y="-330.4" text-anchor="middle" fill="#4ade80" font-size="3.5" font-weight="700" font-family="'Arial', sans-serif" opacity="1">0</text><text x="-4.5" y="-326.8" text-anchor="middle" fill="#1a1a1a" font-size="1.2" font-weight="700" font-family="'Arial', sans-serif" opacity="1">-1</text></g><g transform="rotate(16.7, 0, 0)"><rect x="-8.0" y="-324.0" width="7.0" height="9.9" fill="none" stroke="#4ade80" stroke-width="0.4"/><rect x="-8.0" y="-314.2" width="7.0" height="1.8" fill="#4ade80" stroke="none"/><text x="-4.5" y="-317.9" text-anchor="middle" fill="#4ade80" font-size="3.5" font-weight="700" font-family="'Arial', sans-serif" opacity="1">0</text><text x="-4.5" y="-312.9" text-anchor="middle" fill="#1a1a1a" font-size="1.2" font-weight="700" font-family="'Arial', sans-serif" opacity="1">-1</text></g><g transform="rotate(16.7, 0, 0)"><rect x="-8.0" y="-307.0" width="7.0" height="6.7" fill="none" stroke="#4ade80" stroke-width="0.4"/><rect x="-8.0" y="-300.3" width="7.0" height="1.8" fill="#4ade80" stroke="none"/><text x="-4.5" y="-302.4" text-anchor="middle" fill="#4ade80" font-size="3.5" font-weight="700" font-family="'Arial', sans-serif" opacity="1">0</text><text x="-4.5" y="-298.9" text-anchor="middle" fill="#1a1a1a" font-size="1.2" font-weight="700" font-family="'Arial', sans-serif" opacity="1">-1</text></g></g></svg>